<?xml version="1.0" encoding="iso-8859-1"?>
<!-- Uploaded to: SVG Repo, www.svgrepo.com, Generator: SVG Repo Mixer Tools -->
<svg height="800px" width="800px" version="1.1" id="Capa_1" xmlns="http://www.w3.org/2000/svg" xmlns:xlink="http://www.w3.org/1999/xlink" 
	 viewBox="0 0 26.955 26.955" xml:space="preserve">
<g>
	<g id="c193_arrow">
		<path style="fill:#030104;" d="M24.81,0.615H2.145C0.959,0.615,0,1.574,0,2.759v21.438c0,1.181,0.959,2.142,2.145,2.142H24.81
			c1.184,0,2.145-0.961,2.145-2.142V2.759C26.954,1.574,25.993,0.615,24.81,0.615z M22.276,14.858l-5.978,5.98
			c-0.777,0.775-1.998,0.812-2.723,0.087c-0.729-0.729-0.691-1.948,0.088-2.722l2.859-2.863H5.936c-1.031,0-1.867-0.837-1.867-1.862
			c0-1.031,0.835-1.867,1.867-1.867h10.641l-2.874-2.872c-0.765-0.767-0.797-1.976-0.068-2.704c0.729-0.727,1.939-0.696,2.704,0.068
			l5.901,5.899c0.024,0.025,0.043,0.056,0.067,0.084c0.019,0.016,0.042,0.027,0.061,0.048
			C23.095,12.861,23.057,14.081,22.276,14.858z"/>
	</g>
</g>
</svg>