# Blender 3.4.1
# www.blender.org
o SmallestPlant
v -0.228215 0.775158 -0.017615
v -0.210057 0.901703 -0.083857
v -0.179959 0.872319 -0.268679
v 0.121665 0.911618 -0.177727
v -0.001387 0.888572 -0.271216
v 0.141932 1.017743 0.086512
v -0.203394 1.012558 -0.017569
v -0.068051 1.021900 -0.222781
v 0.002110 1.182074 -0.018083
v 0.225440 1.001987 -0.017615
v 0.068705 1.001988 -0.233341
v -0.184895 1.001988 -0.150940
v -0.184895 1.001988 0.115709
v 0.087722 1.010847 0.245410
v 0.182120 0.775157 -0.150940
v -0.070549 0.787481 -0.214352
v -0.109250 1.104299 -0.095981
v 0.035807 1.083332 -0.115347
v -0.070549 0.787481 0.179214
v 0.100959 1.074520 -0.015656
v 0.039811 1.104299 0.109184
v 0.173138 1.021899 -0.144415
v 0.182120 0.775157 0.115709
v -0.070761 1.071543 0.041667
v -0.042586 0.672846 0.109184
v 0.106475 0.672846 0.060750
v -0.001387 0.634972 -0.017615
v -0.042586 0.672846 -0.144414
v -0.134713 0.672846 -0.017615
v 0.106475 0.672846 -0.095981
v 0.065276 0.755245 0.187551
v 0.214338 0.755245 -0.017615
v -0.001387 0.888572 0.235986
v 0.210601 0.901703 0.052821
v 0.065276 0.755245 -0.222781
v -0.175913 0.755245 0.109184
v -0.175913 0.755245 -0.144415
v -0.115637 0.911618 0.148891
v -0.292485 0.872319 0.077635
v 0.296704 0.872319 -0.113801
v 0.147676 0.888572 0.187552
v -0.068051 1.021900 0.187551
vn 0.3035 -0.1876 0.9342
vn -0.4911 -0.7947 0.3568
vn -0.3392 -0.5489 -0.7640
vn 0.6721 -0.6911 -0.2656
vn 0.2961 -0.2860 0.9113
vn -0.7240 -0.6617 -0.1947
vn 0.9644 -0.0942 0.2471
vn -0.1511 -0.4034 0.9025
vn -0.3395 -0.5493 0.7636
vn -0.0428 0.3222 -0.9457
vn -0.4911 -0.7947 -0.3568
vn 0.4713 -0.6617 -0.5831
vn -0.1795 -0.5444 0.8194
vn -0.1800 -0.5439 -0.8196
vn 0.3313 -0.9435 -0.0000
vn -0.5028 0.7986 0.3307
vn -0.7240 -0.6617 0.1947
vn 0.2648 0.8268 -0.4962
vn -0.4980 0.5725 -0.6513
vn -0.4516 0.8823 0.1327
vn 0.7002 -0.6617 -0.2680
vn 0.4713 -0.6617 0.5831
vn 0.1024 -0.9435 -0.3151
vn -0.6875 0.6394 0.3444
vn 0.1876 -0.7947 0.5773
vn -0.1660 0.7850 0.5969
vn 0.0510 0.8449 -0.5325
vn -0.2680 -0.9435 0.1947
vn 0.3738 0.9130 -0.1636
vn 0.0066 0.7029 -0.7113
vn -0.0247 0.3304 -0.9435
vn -0.4713 0.6617 -0.5831
vn -0.2680 -0.9435 -0.1947
vn 0.3627 0.1102 -0.9254
vn 0.7002 -0.6617 0.2680
vn 0.7678 0.2882 0.5722
vn -0.4336 0.8506 0.2975
vn 0.1024 -0.9435 0.3151
vn 0.8284 0.3675 0.4227
vn -0.5280 0.6461 0.5512
vn 0.6820 0.6180 -0.3911
vn 0.7732 0.5925 -0.2259
vn 0.7201 0.6662 0.1938
vn 0.9017 0.2906 0.3202
vn 0.4884 0.8311 0.2660
vn -0.7822 0.6031 0.1564
vn 0.6550 -0.0787 -0.7516
vn 0.6583 0.7384 0.1463
vn -0.8732 0.2877 -0.3934
vn -0.9781 0.1469 -0.1473
vn 0.1876 -0.7947 -0.5773
vn 0.8535 -0.2080 0.4777
vn 0.5346 -0.3304 0.7779
vn -0.3526 -0.1003 0.9304
vn 0.8874 0.1698 0.4286
vn 0.6071 -0.7947 -0.0000
vn -0.9759 0.1252 -0.1788
vn -0.9261 -0.0620 -0.3722
vn -0.3821 0.0460 0.9230
vn -0.5540 0.0021 0.8325
vn -0.5124 -0.0787 0.8551
vn -0.9761 -0.1732 -0.1314
vn 0.6035 0.0121 -0.7973
vn -0.1518 -0.4037 -0.9022
vn -0.7527 0.6398 -0.1551
vn -0.6082 -0.0158 0.7936
vn -0.3324 0.1708 0.9275
vn 0.6147 -0.1195 -0.7796
vn 0.0340 -0.5075 -0.8610
vn 0.0784 0.8309 -0.5509
vn 0.5013 0.8623 -0.0714
vn -0.3410 0.8880 0.3085
vn 0.9058 0.0067 0.4237
vn 0.6575 0.7089 0.2551
vn 0.3357 -0.0361 -0.9413
vn -0.8753 -0.1197 -0.4685
vn -0.7208 -0.6658 0.1928
vn -0.2230 -0.7131 -0.6646
vn 0.5153 0.0605 -0.8549
vn -0.6096 -0.0279 0.7922
vt 0.923268 0.366288
vt 0.925425 0.362931
vt 0.933454 0.599039
vt 0.923419 0.368230
vt 0.939257 0.603254
vt 0.932940 0.602567
vt 0.922905 0.371758
vt 0.929221 0.372445
vt 0.928578 0.362655
vt 0.939656 0.596519
vt 0.929621 0.365710
vt 0.939487 0.599778
vt 0.929451 0.368969
vt 0.926688 0.368957
vt 0.936724 0.599766
vt 0.934426 0.603119
vt 0.924391 0.372310
vt 0.933879 0.598363
vt 0.939054 0.600224
vt 0.933378 0.603254
vt 0.929019 0.369415
vt 0.944859 0.830605
vt 0.948864 0.827398
vt 0.947225 0.828818
vt 0.936393 0.597246
vt 0.926357 0.366437
vt 0.939312 0.597739
vt 0.929277 0.366930
vt 0.923501 0.370123
vt 0.933536 0.600932
vt 0.924025 0.370023
vt 0.934842 0.596067
vt 0.934060 0.600832
vt 0.923855 0.364108
vt 0.934952 0.602721
vt 0.937034 0.603254
vt 0.927260 0.369608
vt 0.930085 0.364741
vt 0.929637 0.370130
vt 0.928794 0.363873
vt 0.934842 0.602765
vt 0.944877 0.833574
vt 0.938829 0.599660
vt 0.948864 0.830469
vt 0.933890 0.600958
vt 0.939099 0.597094
vt 0.936753 0.596255
vt 0.949134 0.827903
vt 0.929063 0.366285
vt 0.925444 0.367944
vt 0.949301 0.825808
vt 0.946809 0.828628
vt 0.936774 0.597819
vt 0.926739 0.367010
vt 0.924343 0.366671
vt 0.934378 0.597480
vt 0.944414 0.828290
vt 0.947168 0.831357
vt 0.937132 0.600548
vt 0.936336 0.595027
vt 0.939459 0.594889
vt 0.926301 0.364218
vt 0.928326 0.365565
vt 0.926086 0.370176
vt 0.924406 0.369366
vt 0.944476 0.830984
vt 0.934441 0.600175
vt 0.925786 0.367732
vt 0.928711 0.367852
vt 0.928311 0.367396
vt 0.928185 0.369591
vt 0.930013 0.369345
vt 0.927698 0.371697
vt 0.922984 0.366545
vt 0.925758 0.364698
vt 0.928332 0.370511
vt 0.927685 0.369772
vt 0.925610 0.370692
vt 0.928794 0.365486
vt 0.926339 0.372413
vt 0.925786 0.367431
vt 0.927768 0.367406
vt 0.935234 0.600755
vt 0.925199 0.369946
vt 0.936283 0.599096
vt 0.926248 0.368287
vt 0.927155 0.371707
vt 0.929927 0.367683
vt 0.925484 0.365157
vt 0.929591 0.371659
vt 0.927802 0.372445
vt 0.922905 0.368953
vt 0.928578 0.365486
vt 0.935122 0.597678
vt 0.925086 0.366869
vt 0.923855 0.372445
vt 0.933786 0.595276
vt 0.935139 0.593454
vt 0.923751 0.364466
vt 0.925104 0.362645
vt 0.927155 0.367756
vt 0.940056 0.592710
vt 0.925786 0.364577
vt 0.930021 0.361901
vt 0.925296 0.372445
vt 0.935331 0.603254
vt 0.936557 0.602191
vt 0.926522 0.371382
vt 0.923934 0.367201
vt 0.924807 0.368279
vt 0.934842 0.599088
vt 0.933969 0.598010
s 0
f 33/84/1 31/78/1 41/105/1
f 29/75/2 25/68/2 36/89/2
f 28/72/3 37/90/3 16/39/3
f 32/82/4 15/37/4 40/101/4
f 33/83/5 41/106/5 14/35/5
f 29/74/6 1/1/6 37/92/6
f 23/64/7 32/81/7 34/86/7
f 19/50/8 31/78/8 33/84/8
f 25/68/9 19/50/9 36/89/9
f 5/12/10 3/5/10 8/19/10
f 28/73/11 29/76/11 37/91/11
f 30/77/12 35/87/12 15/37/12
f 25/68/13 31/78/13 19/50/13
f 28/72/14 16/39/14 35/88/14
f 26/70/15 27/71/15 30/77/15
f 17/41/16 7/16/16 24/67/16
f 29/75/17 36/89/17 1/2/17
f 22/61/18 11/27/18 18/46/18
f 3/6/19 12/30/19 8/20/19
f 7/17/20 13/31/20 24/65/20
f 32/82/21 30/77/21 15/37/21
f 26/70/22 23/63/22 31/79/22
f 27/71/23 28/73/23 30/77/23
f 17/42/24 24/66/24 9/22/24
f 25/69/25 26/70/25 31/79/25
f 42/109/26 14/34/26 21/55/26
f 18/46/27 8/19/27 17/43/27
f 27/71/28 25/69/28 29/76/28
f 20/53/29 22/60/29 18/47/29
f 18/48/30 17/44/30 9/23/30
f 5/13/31 8/21/31 11/28/31
f 8/20/32 12/30/32 17/45/32
f 27/71/33 29/76/33 28/73/33
f 40/102/34 4/10/34 22/61/34
f 23/63/35 26/70/35 32/82/35
f 34/85/36 10/25/36 6/15/36
f 24/67/37 42/112/37 21/56/37
f 27/71/38 26/70/38 25/69/38
f 41/108/39 34/86/39 6/14/39
f 24/66/40 21/57/40 9/22/40
f 20/51/41 18/48/41 9/23/41
f 40/103/42 22/62/42 10/26/42
f 21/58/43 20/52/43 9/24/43
f 41/107/44 6/15/44 14/36/44
f 6/15/45 10/25/45 20/53/45
f 39/96/46 13/31/46 7/17/46
f 4/10/47 11/27/47 22/61/47
f 21/59/48 6/15/48 20/53/48
f 2/3/49 39/97/49 7/18/49
f 2/3/50 7/18/50 12/30/50
f 30/77/51 28/73/51 35/87/51
f 34/86/52 32/81/52 40/103/52
f 31/80/53 23/64/53 41/108/53
f 39/100/54 36/89/54 38/95/54
f 34/86/55 40/103/55 10/26/55
f 32/82/56 26/70/56 30/77/56
f 3/7/57 2/4/57 12/29/57
f 37/92/58 1/1/58 2/4/58
f 39/98/59 38/94/59 13/32/59
f 36/89/60 19/50/60 38/95/60
f 38/94/61 42/111/61 13/32/61
f 3/7/62 37/92/62 2/4/62
f 4/11/63 35/88/63 5/13/63
f 35/88/64 16/39/64 5/13/64
f 12/30/65 7/18/65 17/45/65
f 38/95/66 33/84/66 42/110/66
f 33/83/67 14/35/67 42/111/67
f 4/11/68 5/13/68 11/28/68
f 16/39/69 3/8/69 5/13/69
f 11/28/70 8/21/70 18/49/70
f 10/26/71 22/62/71 20/54/71
f 13/33/72 42/112/72 24/67/72
f 23/64/73 34/86/73 41/108/73
f 14/36/74 6/15/74 21/59/74
f 15/38/75 4/11/75 40/104/75
f 1/1/76 39/99/76 2/4/76
f 1/2/77 36/89/77 39/100/77
f 16/40/78 37/93/78 3/9/78
f 15/38/79 35/88/79 4/11/79
f 19/50/80 33/84/80 38/95/80
