# Blender 3.4.1
# www.blender.org
o SmallPlant
v -0.301946 0.738292 -0.017615
v -0.277886 0.905971 -0.105389
v -0.238005 0.867036 -0.350289
v 0.161663 0.919109 -0.229771
v -0.001387 0.888572 -0.353650
v 0.310293 1.050734 0.131604
v -0.269057 1.052860 -0.017554
v -0.089720 1.065238 -0.289472
v 0.037415 1.234253 -0.003157
v 0.299171 1.038852 -0.017615
v 0.165135 1.048087 -0.393627
v -0.295818 1.024790 -0.246939
v -0.244545 1.038854 0.159047
v 0.127775 1.053532 0.274946
v 0.241770 0.738291 -0.194277
v -0.093030 0.754621 -0.278302
v -0.178235 1.198798 -0.140019
v 0.047897 1.146639 -0.147115
v -0.093030 0.754621 0.243194
v 0.134228 1.134963 -0.015019
v 0.053203 1.174422 0.150400
v 0.229868 1.065238 -0.185632
v 0.241770 0.738291 0.159047
v -0.093311 1.131018 0.060937
v -0.055978 0.602723 0.150400
v 0.141536 0.602723 0.086223
v -0.001387 0.552537 -0.017615
v -0.055978 0.602723 -0.185631
v -0.178051 0.602724 -0.017615
v 0.141536 0.602723 -0.121454
v 0.086946 0.711906 0.254241
v 0.284460 0.711907 -0.017615
v -0.001387 0.888572 0.318420
v 0.326108 0.879343 0.094613
v 0.086946 0.711906 -0.289472
v -0.232643 0.711907 0.150401
v -0.232643 0.711907 -0.185632
v -0.175759 0.858767 0.268024
v -0.387107 0.867036 0.108597
v 0.348345 0.907322 -0.104183
v 0.196129 0.888572 0.254243
v -0.113273 1.068871 0.307056
vn 0.3035 -0.1876 0.9342
vn -0.4911 -0.7947 0.3568
vn -0.3392 -0.5489 -0.7640
vn 0.8728 -0.4056 -0.2715
vn 0.3090 0.0087 0.9510
vn -0.7240 -0.6617 -0.1947
vn 0.8756 -0.3996 0.2713
vn -0.1511 -0.4034 0.9025
vn -0.3395 -0.5493 0.7636
vn -0.0428 0.3222 -0.9457
vn -0.4911 -0.7947 -0.3568
vn 0.4713 -0.6617 -0.5831
vn -0.1795 -0.5444 0.8194
vn -0.1800 -0.5439 -0.8196
vn 0.3313 -0.9435 -0.0000
vn -0.5245 0.7147 0.4627
vn -0.7240 -0.6617 0.1947
vn 0.3673 0.9106 -0.1894
vn -0.2650 0.4586 -0.8482
vn -0.4516 0.8823 0.1327
vn 0.7002 -0.6617 -0.2680
vn 0.4713 -0.6617 0.5831
vn 0.1024 -0.9435 -0.3151
vn -0.4119 0.7965 0.4427
vn 0.1876 -0.7947 0.5773
vn 0.1340 0.7500 0.6477
vn 0.1613 0.7814 -0.6028
vn -0.2680 -0.9435 0.1947
vn 0.3738 0.9130 -0.1636
vn 0.1794 0.8461 -0.5019
vn -0.3652 0.1511 -0.9186
vn -0.2736 0.6310 -0.7259
vn -0.2680 -0.9435 -0.1947
vn 0.5577 -0.0096 -0.8300
vn 0.7002 -0.6617 0.2680
vn 0.9906 0.1092 -0.0825
vn -0.3867 0.9011 0.1962
vn 0.1024 -0.9435 0.3151
vn 0.7719 -0.0652 0.6323
vn -0.4614 0.8096 0.3629
vn 0.6453 0.6725 -0.3623
vn 0.8319 0.4866 -0.2667
vn 0.7143 0.6738 0.1891
vn 0.6116 0.1561 0.7757
vn 0.4994 0.8599 -0.1057
vn -0.7822 0.6031 0.1564
vn 0.9037 -0.3455 -0.2528
vn 0.4334 0.9012 -0.0027
vn -0.8732 0.2877 -0.3934
vn -0.9931 -0.0103 0.1171
vn 0.1876 -0.7947 -0.5773
vn 0.9568 -0.2830 0.0672
vn 0.5346 -0.3304 0.7779
vn -0.5690 -0.3684 0.7352
vn 0.9543 0.2622 0.1436
vn 0.6071 -0.7947 -0.0000
vn -0.9544 -0.2768 -0.1114
vn -0.9261 -0.0620 -0.3722
vn -0.5768 0.2503 0.7776
vn -0.3755 -0.4864 0.7889
vn -0.7545 0.1040 0.6481
vn -0.9761 -0.1732 -0.1314
vn 0.6035 0.0121 -0.7973
vn -0.1518 -0.4037 -0.9022
vn -0.8368 0.5466 0.0307
vn -0.2603 -0.1010 0.9602
vn 0.1399 0.1485 0.9790
vn 0.5221 -0.6755 -0.5207
vn 0.0340 -0.5075 -0.8610
vn -0.1079 0.9044 -0.4129
vn 0.5013 0.8623 -0.0714
vn -0.4178 0.8883 0.1904
vn 0.7598 -0.1673 0.6283
vn 0.4048 0.7653 0.5005
vn 0.5598 0.0863 -0.8241
vn -0.8753 -0.1197 -0.4685
vn -0.7208 -0.6658 0.1928
vn -0.2230 -0.7131 -0.6646
vn 0.5153 0.0605 -0.8549
vn -0.1981 -0.3734 0.9063
vt 0.923268 0.366288
vt 0.925425 0.362931
vt 0.933454 0.599039
vt 0.923419 0.368230
vt 0.939257 0.603254
vt 0.932940 0.602567
vt 0.922905 0.371758
vt 0.929221 0.372445
vt 0.928578 0.362655
vt 0.939656 0.596519
vt 0.929621 0.365710
vt 0.939487 0.599778
vt 0.929451 0.368969
vt 0.926688 0.368957
vt 0.936724 0.599766
vt 0.934426 0.603119
vt 0.924391 0.372310
vt 0.933879 0.598363
vt 0.939054 0.600224
vt 0.933378 0.603254
vt 0.929019 0.369415
vt 0.944859 0.830605
vt 0.948864 0.827398
vt 0.947225 0.828818
vt 0.936393 0.597246
vt 0.926357 0.366437
vt 0.939312 0.597739
vt 0.929277 0.366930
vt 0.923501 0.370123
vt 0.933536 0.600932
vt 0.924025 0.370023
vt 0.934842 0.596067
vt 0.934060 0.600832
vt 0.923855 0.364108
vt 0.934952 0.602721
vt 0.937034 0.603254
vt 0.927260 0.369608
vt 0.930085 0.364741
vt 0.929637 0.370130
vt 0.928794 0.363873
vt 0.934842 0.602765
vt 0.944877 0.833574
vt 0.938829 0.599660
vt 0.948864 0.830469
vt 0.933890 0.600958
vt 0.939099 0.597094
vt 0.936753 0.596255
vt 0.949134 0.827903
vt 0.929063 0.366285
vt 0.925444 0.367944
vt 0.949301 0.825808
vt 0.946809 0.828628
vt 0.936774 0.597819
vt 0.926739 0.367010
vt 0.924343 0.366671
vt 0.934378 0.597480
vt 0.944414 0.828290
vt 0.947168 0.831357
vt 0.937132 0.600548
vt 0.936336 0.595027
vt 0.939459 0.594889
vt 0.926301 0.364218
vt 0.928326 0.365565
vt 0.926086 0.370176
vt 0.924406 0.369366
vt 0.944476 0.830984
vt 0.934441 0.600175
vt 0.925786 0.367732
vt 0.928711 0.367852
vt 0.928311 0.367396
vt 0.928185 0.369591
vt 0.930013 0.369345
vt 0.927698 0.371697
vt 0.922984 0.366545
vt 0.925758 0.364698
vt 0.928332 0.370511
vt 0.927685 0.369772
vt 0.925610 0.370692
vt 0.928794 0.365486
vt 0.926339 0.372413
vt 0.925786 0.367431
vt 0.927768 0.367406
vt 0.935234 0.600755
vt 0.925199 0.369946
vt 0.936283 0.599096
vt 0.926248 0.368287
vt 0.927155 0.371707
vt 0.929927 0.367683
vt 0.925484 0.365157
vt 0.929591 0.371659
vt 0.927802 0.372445
vt 0.922905 0.368953
vt 0.928578 0.365486
vt 0.935122 0.597678
vt 0.925086 0.366869
vt 0.923855 0.372445
vt 0.933786 0.595276
vt 0.935139 0.593454
vt 0.923751 0.364466
vt 0.925104 0.362645
vt 0.927155 0.367756
vt 0.940056 0.592710
vt 0.925786 0.364577
vt 0.930021 0.361901
vt 0.925296 0.372445
vt 0.935331 0.603254
vt 0.936557 0.602191
vt 0.926522 0.371382
vt 0.923934 0.367201
vt 0.924807 0.368279
vt 0.934842 0.599088
vt 0.933969 0.598010
s 0
f 33/84/1 31/78/1 41/105/1
f 29/75/2 25/68/2 36/89/2
f 28/72/3 37/90/3 16/39/3
f 32/82/4 15/37/4 40/101/4
f 33/83/5 41/106/5 14/35/5
f 29/74/6 1/1/6 37/92/6
f 23/64/7 32/81/7 34/86/7
f 19/50/8 31/78/8 33/84/8
f 25/68/9 19/50/9 36/89/9
f 5/12/10 3/5/10 8/19/10
f 28/73/11 29/76/11 37/91/11
f 30/77/12 35/87/12 15/37/12
f 25/68/13 31/78/13 19/50/13
f 28/72/14 16/39/14 35/88/14
f 26/70/15 27/71/15 30/77/15
f 17/41/16 7/16/16 24/67/16
f 29/75/17 36/89/17 1/2/17
f 22/61/18 11/27/18 18/46/18
f 3/6/19 12/30/19 8/20/19
f 7/17/20 13/31/20 24/65/20
f 32/82/21 30/77/21 15/37/21
f 26/70/22 23/63/22 31/79/22
f 27/71/23 28/73/23 30/77/23
f 17/42/24 24/66/24 9/22/24
f 25/69/25 26/70/25 31/79/25
f 42/109/26 14/34/26 21/55/26
f 18/46/27 8/19/27 17/43/27
f 27/71/28 25/69/28 29/76/28
f 20/53/29 22/60/29 18/47/29
f 18/48/30 17/44/30 9/23/30
f 5/13/31 8/21/31 11/28/31
f 8/20/32 12/30/32 17/45/32
f 27/71/33 29/76/33 28/73/33
f 40/102/34 4/10/34 22/61/34
f 23/63/35 26/70/35 32/82/35
f 34/85/36 10/25/36 6/15/36
f 24/67/37 42/112/37 21/56/37
f 27/71/38 26/70/38 25/69/38
f 41/108/39 34/86/39 6/14/39
f 24/66/40 21/57/40 9/22/40
f 20/51/41 18/48/41 9/23/41
f 40/103/42 22/62/42 10/26/42
f 21/58/43 20/52/43 9/24/43
f 41/107/44 6/15/44 14/36/44
f 6/15/45 10/25/45 20/53/45
f 39/96/46 13/31/46 7/17/46
f 4/10/47 11/27/47 22/61/47
f 21/59/48 6/15/48 20/53/48
f 2/3/49 39/97/49 7/18/49
f 2/3/50 7/18/50 12/30/50
f 30/77/51 28/73/51 35/87/51
f 34/86/52 32/81/52 40/103/52
f 31/80/53 23/64/53 41/108/53
f 39/100/54 36/89/54 38/95/54
f 34/86/55 40/103/55 10/26/55
f 32/82/56 26/70/56 30/77/56
f 3/7/57 2/4/57 12/29/57
f 37/92/58 1/1/58 2/4/58
f 39/98/59 38/94/59 13/32/59
f 36/89/60 19/50/60 38/95/60
f 38/94/61 42/111/61 13/32/61
f 3/7/62 37/92/62 2/4/62
f 4/11/63 35/88/63 5/13/63
f 35/88/64 16/39/64 5/13/64
f 12/30/65 7/18/65 17/45/65
f 38/95/66 33/84/66 42/110/66
f 33/83/67 14/35/67 42/111/67
f 4/11/68 5/13/68 11/28/68
f 16/39/69 3/8/69 5/13/69
f 11/28/70 8/21/70 18/49/70
f 10/26/71 22/62/71 20/54/71
f 13/33/72 42/112/72 24/67/72
f 23/64/73 34/86/73 41/108/73
f 14/36/74 6/15/74 21/59/74
f 15/38/75 4/11/75 40/104/75
f 1/1/76 39/99/76 2/4/76
f 1/2/77 36/89/77 39/100/77
f 16/40/78 37/93/78 3/9/78
f 15/38/79 35/88/79 4/11/79
f 19/50/80 33/84/80 38/95/80
