# Blender 3.4.1
# www.blender.org
o PlacementSmall
v 0.933183 0.115093 -0.933183
v 0.933183 -0.115093 -0.933183
v 0.933183 0.115093 0.933183
v 0.933183 -0.115093 0.933183
v -0.933183 0.115093 -0.933183
v -0.933183 -0.115093 -0.933183
v -0.933183 0.115093 0.933183
v -0.933183 -0.115093 0.933183
v 0.879150 0.245447 0.879150
v -0.879150 0.245447 0.879150
v 0.879150 0.245447 -0.879150
v -0.879150 0.245447 -0.879150
v 0.846112 0.118724 0.846112
v -0.846112 0.118724 0.846112
v 0.846112 0.118724 -0.846112
v -0.846112 0.118724 -0.846112
v 0.716323 0.118724 0.716323
v -0.716323 0.118724 0.716323
v 0.716323 0.118724 -0.716323
v -0.716323 0.118724 -0.716323
v 0.692274 0.118724 0.846112
v 0.538435 0.118724 0.846112
v 0.384596 0.118724 0.846112
v 0.230758 0.118724 0.846112
v 0.076919 0.118724 0.846112
v -0.076919 0.118724 0.846112
v -0.230758 0.118724 0.846112
v -0.384596 0.118724 0.846112
v -0.538435 0.118724 0.846112
v -0.692274 0.118724 0.846112
v 0.846112 0.118724 -0.692274
v 0.846112 0.118724 -0.538435
v 0.846112 0.118724 -0.384596
v 0.846112 0.118724 -0.230758
v 0.846112 0.118724 -0.076919
v 0.846112 0.118724 0.076919
v 0.846112 0.118724 0.230758
v 0.846112 0.118724 0.384596
v 0.846112 0.118724 0.538435
v 0.846112 0.118724 0.692274
v -0.846112 0.118724 0.692274
v -0.846112 0.118724 0.538435
v -0.846112 0.118724 0.384596
v -0.846112 0.118724 0.230758
v -0.846112 0.118724 0.076919
v -0.846112 0.118724 -0.076919
v -0.846112 0.118724 -0.230758
v -0.846112 0.118724 -0.384596
v -0.846112 0.118724 -0.538435
v -0.846112 0.118724 -0.692274
v -0.692274 0.118724 -0.846112
v -0.538435 0.118724 -0.846112
v -0.384596 0.118724 -0.846112
v -0.230758 0.118724 -0.846112
v -0.076919 0.118724 -0.846112
v 0.076919 0.118724 -0.846112
v 0.230758 0.118724 -0.846112
v 0.384596 0.118724 -0.846112
v 0.538435 0.118724 -0.846112
v 0.692274 0.118724 -0.846112
v 0.527475 0.118724 0.716323
v 0.410258 0.118724 0.716323
v 0.293041 0.118724 0.716323
v 0.175825 0.118724 0.716323
v 0.043163 0.118724 0.474788
v -0.043162 0.118724 0.474788
v -0.175825 0.118724 0.716323
v -0.293041 0.118724 0.716323
v -0.410258 0.118724 0.716323
v -0.527475 0.118724 0.716323
v 0.716323 0.118724 -0.527475
v 0.716323 0.118724 -0.410258
v 0.716323 0.118724 -0.293041
v 0.716323 0.118724 -0.175825
v 0.474788 0.118724 -0.043163
v 0.474788 0.118724 0.043163
v 0.716323 0.118724 0.175825
v 0.716323 0.118724 0.293041
v 0.716323 0.118724 0.410258
v 0.716323 0.118724 0.527475
v -0.716323 0.118724 0.527475
v -0.716323 0.118724 0.410258
v -0.716323 0.118724 0.293041
v -0.716323 0.118724 0.175825
v -0.474788 0.118724 0.043163
v -0.474788 0.118724 -0.043163
v -0.716323 0.118724 -0.175825
v -0.716323 0.118724 -0.293041
v -0.716323 0.118724 -0.410258
v -0.716323 0.118724 -0.527475
v -0.527475 0.118724 -0.716323
v -0.410258 0.118724 -0.716323
v -0.293041 0.118724 -0.716323
v -0.175825 0.118724 -0.716323
v -0.043162 0.118724 -0.474788
v 0.043163 0.118724 -0.474788
v 0.175825 0.118724 -0.716323
v 0.293041 0.118724 -0.716323
v 0.410258 0.118724 -0.716323
v 0.527475 0.118724 -0.716323
vn -0.9238 0.3829 -0.0000
vn -0.0000 -0.0000 1.0000
vn -1.0000 -0.0000 -0.0000
vn -0.0000 -1.0000 -0.0000
vn 1.0000 -0.0000 -0.0000
vn -0.0000 -0.0000 -1.0000
vn 0.9677 0.2523 -0.0000
vn 0.9238 0.3829 -0.0000
vn -0.0000 0.3829 -0.9238
vn -0.0000 0.3829 0.9238
vn -0.0000 1.0000 -0.0000
vn -0.0000 0.2523 -0.9677
vn -0.0000 0.2523 0.9677
vn -0.9677 0.2523 -0.0000
vt 0.671588 0.125649
vt 0.456535 0.125649
vt 0.670904 0.125649
vt 0.671588 0.126333
vt 0.456535 0.126333
vt 0.670904 0.126333
vt 0.671588 0.124964
vt 0.456535 0.124964
vt 0.670219 0.125649
vt 0.670904 0.124964
vt 0.456535 0.124279
vt 0.671588 0.127018
vt 0.671588 0.124279
vt 0.456535 0.127018
vt 0.670904 0.127018
vt 0.670904 0.124279
vt 0.670219 0.126333
vt 0.456535 0.126333
vt 0.671588 0.126333
vt 0.456535 0.124279
vt 0.671588 0.124279
vt 0.456535 0.127018
vt 0.671588 0.127018
vt 0.456535 0.125649
vt 0.671588 0.125649
vt 0.456535 0.124964
vt 0.671588 0.124964
vt 0.671588 0.126333
vt 0.946378 0.110403
vt 0.671588 0.124279
vt 0.671588 0.127018
vt 0.946378 0.108349
vt 0.946378 0.111088
vt 0.671588 0.125649
vt 0.946378 0.109719
vt 0.671588 0.124964
vt 0.946378 0.109034
vt 0.946378 0.110403
vt 0.668556 0.111144
vt 0.946378 0.108349
vt 0.946378 0.111088
vt 0.668556 0.111092
vt 0.946378 0.109719
vt 0.668556 0.111127
vt 0.946378 0.109034
vt 0.668556 0.111109
vt 0.671588 0.126396
vt 0.946378 0.110466
vt 0.695483 0.628186
vt 0.671588 0.126458
vt 0.946378 0.110528
vt 0.695483 0.628248
vt 0.671588 0.126520
vt 0.695483 0.628310
vt 0.946378 0.110590
vt 0.671588 0.126582
vt 0.946378 0.110653
vt 0.695483 0.628373
vt 0.671588 0.126645
vt 0.946378 0.110715
vt 0.671588 0.126707
vt 0.946378 0.110777
vt 0.671588 0.126769
vt 0.695483 0.628559
vt 0.946378 0.110839
vt 0.671588 0.126831
vt 0.946378 0.110902
vt 0.695483 0.628622
vt 0.671588 0.126894
vt 0.695483 0.628684
vt 0.946378 0.110964
vt 0.671588 0.126956
vt 0.946378 0.111026
vt 0.695483 0.628746
vt 0.671588 0.125711
vt 0.946378 0.109781
vt 0.695483 0.627501
vt 0.671588 0.125773
vt 0.946378 0.109843
vt 0.695483 0.627563
vt 0.671588 0.125835
vt 0.695483 0.627626
vt 0.946378 0.109905
vt 0.671588 0.125898
vt 0.946378 0.109968
vt 0.695483 0.627688
vt 0.671588 0.125960
vt 0.946378 0.110030
vt 0.671588 0.126022
vt 0.946378 0.110092
vt 0.671588 0.126084
vt 0.695483 0.627875
vt 0.946378 0.110154
vt 0.671588 0.126147
vt 0.946378 0.110217
vt 0.695483 0.627937
vt 0.671588 0.126209
vt 0.695483 0.627999
vt 0.946378 0.110279
vt 0.671588 0.126271
vt 0.946378 0.110341
vt 0.695483 0.628061
vt 0.671588 0.124341
vt 0.946378 0.108411
vt 0.695483 0.626131
vt 0.671588 0.124403
vt 0.946378 0.108474
vt 0.695483 0.626194
vt 0.671588 0.124466
vt 0.695483 0.626256
vt 0.946378 0.108536
vt 0.671588 0.124528
vt 0.946378 0.108598
vt 0.695483 0.626318
vt 0.671588 0.124590
vt 0.946378 0.108660
vt 0.671588 0.124652
vt 0.946378 0.108723
vt 0.671588 0.124715
vt 0.695483 0.626505
vt 0.946378 0.108785
vt 0.671588 0.124777
vt 0.946378 0.108847
vt 0.695483 0.626567
vt 0.671588 0.124839
vt 0.695483 0.626629
vt 0.946378 0.108909
vt 0.671588 0.124901
vt 0.946378 0.108972
vt 0.695483 0.626692
vt 0.946378 0.109096
vt 0.671588 0.125026
vt 0.695483 0.626816
vt 0.671588 0.125088
vt 0.946378 0.109158
vt 0.695483 0.626878
vt 0.671588 0.125150
vt 0.695483 0.626941
vt 0.946378 0.109221
vt 0.671588 0.125213
vt 0.946378 0.109283
vt 0.695483 0.627003
vt 0.671588 0.125275
vt 0.946378 0.109345
vt 0.671588 0.125337
vt 0.946378 0.109407
vt 0.671588 0.125400
vt 0.695483 0.627190
vt 0.946378 0.109470
vt 0.671588 0.125462
vt 0.946378 0.109532
vt 0.695483 0.627252
vt 0.671588 0.125524
vt 0.695483 0.627314
vt 0.946378 0.109594
vt 0.671588 0.125586
vt 0.946378 0.109656
vt 0.695483 0.627377
vt 0.946378 0.110466
vt 0.695483 0.628186
vt 0.662215 0.124230
vt 0.946378 0.110528
vt 0.695483 0.628248
vt 0.668556 0.111147
vt 0.695483 0.628310
vt 0.946378 0.110590
vt 0.662215 0.124233
vt 0.946378 0.110653
vt 0.695483 0.628373
vt 0.668556 0.111150
vt 0.946378 0.110715
vt 0.668556 0.111152
vt 0.946378 0.110777
vt 0.668556 0.111154
vt 0.695483 0.628559
vt 0.946378 0.110839
vt 0.668556 0.111155
vt 0.946378 0.110902
vt 0.695483 0.628622
vt 0.662215 0.124241
vt 0.695483 0.628684
vt 0.946378 0.110964
vt 0.668556 0.111158
vt 0.946378 0.111026
vt 0.695483 0.628746
vt 0.662215 0.124244
vt 0.946378 0.109781
vt 0.695483 0.627501
vt 0.662215 0.124213
vt 0.946378 0.109843
vt 0.695483 0.627563
vt 0.668556 0.111130
vt 0.695483 0.627626
vt 0.946378 0.109905
vt 0.662215 0.124216
vt 0.946378 0.109968
vt 0.695483 0.627688
vt 0.668556 0.111133
vt 0.946378 0.110030
vt 0.668556 0.111135
vt 0.946378 0.110092
vt 0.668556 0.111136
vt 0.695483 0.627875
vt 0.946378 0.110154
vt 0.662215 0.124222
vt 0.946378 0.110217
vt 0.695483 0.627937
vt 0.668556 0.111139
vt 0.695483 0.627999
vt 0.946378 0.110279
vt 0.662215 0.124225
vt 0.946378 0.110341
vt 0.695483 0.628061
vt 0.662215 0.124227
vt 0.946378 0.108411
vt 0.695483 0.626131
vt 0.668556 0.111094
vt 0.946378 0.108474
vt 0.695483 0.626194
vt 0.662215 0.124180
vt 0.695483 0.626256
vt 0.946378 0.108536
vt 0.668556 0.111097
vt 0.946378 0.108598
vt 0.695483 0.626318
vt 0.662215 0.124183
vt 0.946378 0.108660
vt 0.668556 0.111100
vt 0.946378 0.108723
vt 0.668556 0.111102
vt 0.695483 0.626505
vt 0.946378 0.108785
vt 0.668556 0.111103
vt 0.946378 0.108847
vt 0.695483 0.626567
vt 0.662215 0.124189
vt 0.695483 0.626629
vt 0.946378 0.108909
vt 0.668556 0.111106
vt 0.946378 0.108972
vt 0.695483 0.626692
vt 0.662215 0.124192
vt 0.946378 0.109096
vt 0.695483 0.626816
vt 0.668556 0.111111
vt 0.946378 0.109158
vt 0.695483 0.626878
vt 0.662215 0.124197
vt 0.695483 0.626941
vt 0.946378 0.109221
vt 0.668556 0.111114
vt 0.946378 0.109283
vt 0.695483 0.627003
vt 0.662215 0.124200
vt 0.946378 0.109345
vt 0.668556 0.111117
vt 0.946378 0.109407
vt 0.668556 0.111119
vt 0.695483 0.627190
vt 0.946378 0.109470
vt 0.662215 0.124205
vt 0.946378 0.109532
vt 0.695483 0.627252
vt 0.668556 0.111122
vt 0.695483 0.627314
vt 0.946378 0.109594
vt 0.662215 0.124208
vt 0.946378 0.109656
vt 0.695483 0.627377
vt 0.662215 0.124210
s 0
f 5/8/1 7/11/1 10/20/1 12/26/1
f 4/6/2 3/4/2 7/12/2 8/15/2
f 8/16/3 7/13/3 5/7/3 6/10/3
f 6/9/4 2/3/4 4/6/4 8/17/4
f 2/3/5 1/1/5 3/4/5 4/6/5
f 6/10/6 5/7/6 1/1/6 2/3/6
f 12/27/7 10/21/7 14/30/7 41/103/7 42/106/7 43/109/7 44/112/7 45/115/7 46/117/7 47/119/7 48/122/7 49/125/7 50/128/7 16/36/7
f 3/5/8 1/2/8 11/24/8 9/18/8
f 1/2/9 5/8/9 12/26/9 11/24/9
f 7/14/10 3/5/10 9/18/10 10/22/10
f 51/131/11 16/37/11 20/45/11 91/243/11
f 10/23/12 9/19/12 13/28/12 21/47/12 22/50/12 23/53/12 24/56/12 25/59/12 26/61/12 27/63/12 28/66/12 29/69/12 30/72/12 14/31/12
f 11/25/13 12/27/13 16/36/13 51/132/13 52/134/13 53/137/13 54/140/13 55/143/13 56/145/13 57/147/13 58/150/13 59/153/13 60/156/13 15/34/13
f 9/19/14 11/25/14 15/34/14 31/75/14 32/78/14 33/81/14 34/84/14 35/87/14 36/89/14 37/91/14 38/94/14 39/97/14 40/100/14 13/28/14
f 31/76/11 15/35/11 19/43/11 71/187/11
f 41/104/11 14/32/11 18/40/11 81/215/11
f 21/48/11 13/29/11 17/38/11 61/159/11
f 14/33/11 30/73/11 70/184/11 18/41/11
f 30/74/11 29/70/11 69/181/11 70/185/11
f 29/71/11 28/67/11 68/178/11 69/182/11
f 28/68/11 27/64/11 67/175/11 68/179/11
f 27/65/11 26/62/11 66/173/11 67/176/11
f 26/62/11 25/60/11 65/171/11 66/173/11
f 25/60/11 24/57/11 64/168/11 65/171/11
f 24/58/11 23/54/11 63/165/11 64/169/11
f 23/55/11 22/51/11 62/162/11 63/166/11
f 22/52/11 21/49/11 61/160/11 62/163/11
f 16/37/11 50/129/11 90/240/11 20/45/11
f 50/130/11 49/126/11 89/237/11 90/241/11
f 49/127/11 48/123/11 88/234/11 89/238/11
f 48/124/11 47/120/11 87/231/11 88/235/11
f 47/121/11 46/118/11 86/229/11 87/232/11
f 46/118/11 45/116/11 85/227/11 86/229/11
f 45/116/11 44/113/11 84/224/11 85/227/11
f 44/114/11 43/110/11 83/221/11 84/225/11
f 43/111/11 42/107/11 82/218/11 83/222/11
f 42/108/11 41/105/11 81/216/11 82/219/11
f 13/29/11 40/101/11 80/212/11 17/38/11
f 40/102/11 39/98/11 79/209/11 80/213/11
f 39/99/11 38/95/11 78/206/11 79/210/11
f 38/96/11 37/92/11 77/203/11 78/207/11
f 37/93/11 36/90/11 76/201/11 77/204/11
f 36/90/11 35/88/11 75/199/11 76/201/11
f 35/88/11 34/85/11 74/196/11 75/199/11
f 34/86/11 33/82/11 73/193/11 74/197/11
f 33/83/11 32/79/11 72/190/11 73/194/11
f 32/80/11 31/77/11 71/188/11 72/191/11
f 15/35/11 60/157/11 100/268/11 19/43/11
f 60/158/11 59/154/11 99/265/11 100/269/11
f 59/155/11 58/151/11 98/262/11 99/266/11
f 58/152/11 57/148/11 97/259/11 98/263/11
f 57/149/11 56/146/11 96/257/11 97/260/11
f 56/146/11 55/144/11 95/255/11 96/257/11
f 55/144/11 54/141/11 94/252/11 95/255/11
f 54/142/11 53/138/11 93/249/11 94/253/11
f 53/139/11 52/135/11 92/246/11 93/250/11
f 52/136/11 51/133/11 91/244/11 92/247/11
f 100/270/11 99/267/11 98/264/11 97/261/11 96/258/11 75/200/11 74/198/11 73/195/11 72/192/11 71/189/11 19/44/11
f 80/214/11 79/211/11 78/208/11 77/205/11 76/202/11 65/172/11 64/170/11 63/167/11 62/164/11 61/161/11 17/39/11
f 18/42/11 70/186/11 69/183/11 68/180/11 67/177/11 66/174/11 85/228/11 84/226/11 83/223/11 82/220/11 81/217/11
f 20/46/11 90/242/11 89/239/11 88/236/11 87/233/11 86/230/11 95/256/11 94/254/11 93/251/11 92/248/11 91/245/11
f 65/172/11 76/202/11 75/200/11 96/258/11 95/256/11 86/230/11 85/228/11 66/174/11
